<?xml version="1.0" encoding="utf-8"?>
<!-- Generator: Adobe Illustrator 23.0.2, SVG Export Plug-In . SVG Version: 6.00 Build 0)  -->
<svg version="1.1" id="Capa_1" xmlns="http://www.w3.org/2000/svg" xmlns:xlink="http://www.w3.org/1999/xlink" x="0px" y="0px"
	 viewBox="0 0 55 55" style="enable-background:new 0 0 55 55;" xml:space="preserve">
<style type="text/css">
	.st0{fill:#FFFFFF;}
</style>
<g>
	<path class="st0" d="M49,8.5v-8H0v47h7v7h48v-46H49z M2,45.5v-43h45v6H7v37H2z M53,52.5H9v-5v-37h40h4V52.5z"/>
	<path class="st0" d="M39.5,23c-0.4-0.4-1-0.4-1.4,0L31,30.1L23.9,23c-0.4-0.4-1-0.4-1.4,0s-0.4,1,0,1.4l7.1,7.1l-7.1,7.1
		c-0.4,0.4-0.4,1,0,1.4c0.2,0.2,0.5,0.3,0.7,0.3s0.5-0.1,0.7-0.3l7.1-7.1l7.1,7.1c0.2,0.2,0.5,0.3,0.7,0.3s0.5-0.1,0.7-0.3
		c0.4-0.4,0.4-1,0-1.4l-7.1-7.1l7.1-7.1C39.9,24,39.9,23.4,39.5,23z"/>
</g>
</svg>
