<?xml version="1.0" encoding="utf-8"?>
<!-- Generator: Adobe Illustrator 24.0.1, SVG Export Plug-In . SVG Version: 6.00 Build 0)  -->
<svg version="1.1" id="Capa_1" xmlns="http://www.w3.org/2000/svg" xmlns:xlink="http://www.w3.org/1999/xlink" x="0px" y="0px"
	 viewBox="0 0 512 512" style="enable-background:new 0 0 512 512;" xml:space="preserve">
<g>
	<g>
		<path d="M92.8,356.1l157.9,153.8c2.9,2.8,7.6,2.8,10.5,0l157.9-153.8c1.5-1.4,2.3-3.4,2.3-5.4c0-2-0.8-4-2.3-5.4l-42.9-41.8
			c-2.9-2.9-7.6-2.8-10.5,0l-72.2,70.8l0-366.8c0-4.2-3.4-7.5-7.5-7.5h-60.2c-4.2,0-7.5,3.4-7.5,7.5l0,366.8l-72.2-70.8
			c-2.9-2.9-7.6-2.9-10.5,0l-42.9,41.8c-1.5,1.4-2.3,3.4-2.3,5.4C90.6,352.8,91.4,354.7,92.8,356.1z"/>
	</g>
</g>
</svg>
