<?xml version="1.0" encoding="utf-8"?>
<!-- Generator: Adobe Illustrator 23.0.2, SVG Export Plug-In . SVG Version: 6.00 Build 0)  -->
<svg version="1.1" id="Capa_1" xmlns="http://www.w3.org/2000/svg" xmlns:xlink="http://www.w3.org/1999/xlink" x="0px" y="0px"
	 viewBox="0 0 294.8 294.8" style="enable-background:new 0 0 294.8 294.8;" xml:space="preserve">
<style type="text/css">
	.st0{fill:#FFFFFF;}
</style>
<g>
	<path class="st0" d="M53.4,0C24.4,0,0.9,23.6,0.9,52.6s23.6,52.6,52.6,52.6S106,81.6,106,52.6S82.4,0,53.4,0z M53.4,85.4
		c-18.1,0-32.9-14.7-32.9-32.9c0-18.1,14.7-32.9,32.9-32.9s32.9,14.7,32.9,32.9C86.3,70.7,71.6,85.4,53.4,85.4z"/>
	<path class="st0" d="M240.9,105.2c29,0,52.6-23.6,52.6-52.6S269.9,0,240.9,0s-52.6,23.6-52.6,52.6S211.9,105.2,240.9,105.2z
		 M240.9,19.7c18.1,0,32.9,14.7,32.9,32.9c0,18.1-14.7,32.9-32.9,32.9s-32.9-14.7-32.9-32.9C208.1,34.5,222.8,19.7,240.9,19.7z"/>
	<path class="st0" d="M96.2,232.4c-5.4,0-9.9,4.4-9.9,9.9c0,18.1-14.7,32.9-32.9,32.9s-32.9-14.7-32.9-32.9s14.7-32.9,32.9-32.9
		c5.4,0,9.9-4.4,9.9-9.9s-4.4-9.9-9.9-9.9c-29,0-52.6,23.6-52.6,52.6s23.6,52.6,52.6,52.6s52.6-23.6,52.6-52.6
		C106,236.8,101.6,232.4,96.2,232.4z"/>
	<path class="st0" d="M240.9,189.7c-29,0-52.6,23.6-52.6,52.6s23.6,52.6,52.6,52.6s52.6-23.6,52.6-52.6S269.9,189.7,240.9,189.7z
		 M240.9,275.1c-18.1,0-32.9-14.7-32.9-32.9s14.7-32.9,32.9-32.9c18.1,0,32.9,14.7,32.9,32.9S259.1,275.1,240.9,275.1z"/>
</g>
</svg>
